<?xml version="1.0" encoding="utf-8"?>
<!-- Generator: Adobe Illustrator 22.1.0, SVG Export Plug-In . SVG Version: 6.00 Build 0)  -->
<svg version="1.1" id="Layer_1" xmlns="http://www.w3.org/2000/svg" xmlns:xlink="http://www.w3.org/1999/xlink" x="0px" y="0px"
	 viewBox="0 0 29.2 30.8" style="enable-background:new 0 0 29.2 30.8;" xml:space="preserve">
<style type="text/css">
	.st0{fill:#3C3C3B;}
	.st1{fill:#BF5317;}
</style>
<g>
	<g>
		<g>
			<g>
				<path class="st0" d="M23.6,19.7h-2.1v-0.9c0-4.1-3.3-7.4-7.4-7.4s-7.4,3.3-7.4,7.4v0.9H4.8v-0.9c0-5.2,4.3-9.4,9.4-9.4
					s9.4,4.3,9.4,9.4V19.7z"/>
			</g>
		</g>
		<g>
			<g>
				<g>
					<path class="st0" d="M14.2,8.6c-2.4,0-4.3-1.9-4.3-4.3S11.8,0,14.2,0s4.3,1.9,4.3,4.3S16.6,8.6,14.2,8.6z M14.2,1.7
						c-1.4,0-2.6,1.1-2.6,2.6s1.1,2.6,2.6,2.6s2.6-1.1,2.6-2.6S15.6,1.7,14.2,1.7z"/>
				</g>
			</g>
		</g>
	</g>
	<rect y="25.1" class="st1" width="29.2" height="5.7"/>
</g>
</svg>
