<?xml version="1.0" encoding="utf-8"?>
<!-- Generator: Adobe Illustrator 22.1.0, SVG Export Plug-In . SVG Version: 6.00 Build 0)  -->
<svg version="1.1" id="Layer_1" xmlns="http://www.w3.org/2000/svg" xmlns:xlink="http://www.w3.org/1999/xlink" x="0px" y="0px"
	 viewBox="0 0 105.6 111.4" style="enable-background:new 0 0 105.6 111.4;" xml:space="preserve">
<style type="text/css">
	.st0{fill:#3C3C3B;}
	.st1{fill:#BF5317;}
</style>
<g>
	<g>
		<g>
			<g>
				<path class="st0" d="M85.5,71.4H78v-3.1c0-14.7-11.9-26.6-26.6-26.6S24.8,53.6,24.8,68.3v3.1h-7.5v-3.1
					c0-18.8,15.3-34.1,34.1-34.1s34.1,15.3,34.1,34.1V71.4z"/>
			</g>
		</g>
		<g>
			<g>
				<g>
					<path class="st0" d="M51.4,30.9c-8.5,0-15.5-6.9-15.5-15.5S42.9,0,51.4,0s15.5,6.9,15.5,15.5S59.9,30.9,51.4,30.9z M51.4,6.1
						c-5.1,0-9.3,4.2-9.3,9.3s4.2,9.3,9.3,9.3s9.3-4.2,9.3-9.3S56.5,6.1,51.4,6.1z"/>
				</g>
			</g>
		</g>
	</g>
	<rect y="90.8" class="st1" width="105.6" height="20.6"/>
</g>
</svg>
