<svg xmlns="http://www.w3.org/2000/svg" viewBox="0 0 669.57 597.75"><defs><style>.cls-1{fill:#8ca66f;}.cls-2{fill:none;stroke:#eb2323;stroke-linecap:round;stroke-linejoin:round;stroke-width:10px;stroke-dasharray:12 27;}</style></defs><title>kartsvg</title><g id="Layer_2" data-name="Layer 2"><g id="Layer_1-2" data-name="Layer 1"><path class="cls-1" d="M374.64,61.4c-.88-3.29,1.82-6.39,6-5.86a16.11,16.11,0,0,1,3.71,2.39c2.64,2.69,5.54,3.11,9,1.94a12.1,12.1,0,0,1,4.74-1c1.47.12,3.47.77,4.17,1.86,2.22,3.48,4.86,5.88,9.08,6.76,1.7.36,3.08,2.26,4.61,3.46-1.5,1.19-2.84,2.75-4.54,3.48-4.36,1.88-9.62,1.83-12.25,7.06-.85,1.68-3.17,1.85-4-.6-2-5.49-5.84-8.47-11.42-9.86C378.71,69.86,375.93,66.23,374.64,61.4ZM290.12,27.73a27.66,27.66,0,0,1,7.37,10.44c4.38,10.15,19.5,13.13,27.05,5,7.18-7.76,9.41-18,12.95-28.54-1.23-2.88-1.71-7-4-8.88-10.52-8.58-10.65-6.89-18.83.69a38.77,38.77,0,0,1-3.18,3.1c-1.16.88-2.6,2.1-3.85,2-6.27-.39-11.12,2.93-16.21,5.71C285.76,20.34,285.12,23.46,290.12,27.73ZM423.71,105.4h.15v-.13Zm245.6,422.4A106.43,106.43,0,0,0,664.64,514a10.25,10.25,0,0,0-7.52-6.88c-8.47-1.78-16.93-3.85-25.5-4.79-13-1.42-9.93-6.56-5.58-13.78a31.3,31.3,0,0,1,2.68-3.59q5.43-6.65,10.86-13.23c3.74-4.52,5.25-9.38,2.53-15a48.72,48.72,0,0,1-2.65-6.38c-1.38-4.39-.06-5.81,4.43-5,6.4,1.16,12.77,2.66,19.23,3.38,5.21.6,7.51-1.83,5.84-6.83-2.21-6.6-5.64-12.81-8.66-19.12-.43-.88-1.55-1.46-2.42-2.1-4.74-3.51-9.92-2.54-15.16-1.53-5.63,1.08-6.85.11-8.7-5.13-1.32-3.69-3.32-7.14-4.68-10.82-1.53-4.14-2.87-8.37-4-12.64-1.31-5.08-1.62-10.5-3.55-15.31-3-7.51-7.42-8.32-14-3.49-1.31,1-2.45,2.16-3.79,3.06a10.4,10.4,0,0,1-3.93,2c-8.08,1.06-15.86.17-21.94-5.85-4-4-7.3-8.77-11.3-12.8a10.62,10.62,0,0,0-6.22-2.75c-3.2-.27-6.48.37-9.71.74-3.92.47-6.89-.75-8.83-4.35-1-1.91-2.33-3.66-3.41-5.53-4.58-8-9.1-16-13.68-24-1.3-2.25-3.57-4.33-3.86-6.69-.47-3.7-1.83-3.93-4.69-2.77A7.08,7.08,0,0,1,514,313c-7.26.13-11.45,3-14,9.74-1,2.69-1.82,5.46-2.87,8.15a47.45,47.45,0,0,1-3,6.62c-1.64,2.82-4,3.41-6.09.61-3.08-4.1-5.86-8.42-8.71-12.68a11.46,11.46,0,0,1-.88-11.93c.57-1.26,1.16-3.35.55-4.16-3.64-4.8-7-9.78-14-10.84-2.48-.39-5.61-3.46-6.51-6a107.31,107.31,0,0,1-5.16-20.41c-1.85-12.93-3.57-25.64-15.08-34.32-3.43-2.58-1.66-5.58.5-8.06,6.12-7,7.81-15.21,7.15-24.27q-1.25-17.07-1.85-34.12c-.24-7.26-2.22-13.51-7.59-18.65a70,70,0,0,1-7.1-8.37,3.35,3.35,0,0,1,.55-4.69,3.31,3.31,0,0,1,2.11-.72,7.24,7.24,0,0,1,2.81.41c4,1.42,5.87-.07,6.39-4.12.36-2.81,1.71-5.64,1.48-8.37-.31-3.5-.78-7.83-2.94-10.15-4.07-4.35-9.42-7.51-14.25-11.14-.38-.29-1.18-.68-1.33-.54s-.21.19-.31.3v.13h-.15l.15-.13V100.5h-.49a1.5,1.5,0,0,0,0-.89c-3.48-7.84-9.75-12.67-17.54-15.73a5.91,5.91,0,0,0-7.72,3.22,6,6,0,0,0-.45,2.14c-.07,4.65-2.92,7.75-6.41,9.68-2.62,1.46-6.38,2.33-9.2,1.67-7.31-1.73-14.53-3.1-22.09-2.53-3.1.24-5.59-1-6.22-4.55-1.57-8.72.85-14,8.5-18.57a25.18,25.18,0,0,0,3-2.1c.49-.39,1.2-1.16,1.09-1.55-.7-2.32-1-5.3-2.59-6.74-3.54-3.18-3.88-6.81-3.5-11,.25-2.78-3.27-6.85-5.6-6.85-4.76,0-9.57-.3-14.27.26-8.87,1-13.37,1-12.89,13.34.17,4.4-1.94,6.6-5.62,8.36-5.73,2.73-12.66,3.61-16.2,10a2.67,2.67,0,0,1-1.33.9c-5.67,2.16-11.21,4.92-17.08,6.24-6.72,1.51-13.72,1.89-20.62,2.47a15.1,15.1,0,0,0-12.07,7.13c-3.86,5.89-7.8,11.76-12,17.41-2.93,3.94-5.64,4.25-9.93,1.93a34.27,34.27,0,0,1-3.51-2.06,16.66,16.66,0,0,0-17-1.85c-8.9,3.66-17.86,7.18-26.71,11-4.17,1.78-8.06,2.06-12-.33-3.27-2-6.65-3.68-9.94-5.58-5.52-3.19-7.09-3-11.76,1.33-2.18,2-4.11,5-6.7,5.8-10,3.13-20.07,6.17-30.55,1.64-7.61-3.28-15.28-6.4-23-9.44a11.55,11.55,0,0,0-5.44-1A94.55,94.55,0,0,0,74.8,116.5a6.85,6.85,0,0,0-3.47,1.83c-5.09,6.22-8.15,13-5.82,21.38a119.09,119.09,0,0,1,2.28,12.17c-.58,6.47-.9,11.08-1.41,15.66-.6,5.48-1.55,6.41-7,7.57a2.57,2.57,0,0,0-1.07.53c-3.09,2.39-5.72,5.77-10.39,4.87a1.26,1.26,0,0,0-.79.71c-.8,2.55-2.12,5.1-2.17,7.69a88.61,88.61,0,0,0,.89,15c2.55,16.89,2.36,17.46-10.66,28.42a18.37,18.37,0,0,0-5,6.76c-2.45,5.87-4.28,12-6.49,18-4.37,11.8-8.18,23.9-13.48,35.27-4.09,8.78-8,17.49-10.16,26.91-.28,1.21.44,2.72.89,4,.58,1.72,1.81,3.32,2,5s.63,2.58,1.52,2.67v6c-.36,1.63,0,3.7,1.15,6.44,1.73,4.29,3.84,5.12,8.24,4.13,8.12-1.84,15.51-6.78,24.31-5.76.53.07,1.12-.35,1.68-.58h5.27c2.57,1.31,5.25.36,8.09-2.7s5.47-6.39,8-9.71c2.9-3.72,6.14-6,11.31-5.67,9.49.65,19,.76,28.52.94,5.43.1,6.81-.92,8.49-6.23,1.48-4.64,2.49-9.44,4-14.06.44-1.33,2-3.21,3.07-3.18a5.88,5.88,0,0,1,4,2.7,68.13,68.13,0,0,1,4.53,9.53c2.71,6.65,4.94,13.46,10.13,18.86a6.22,6.22,0,0,0,2.09,1.58v5.5h2.58V339c1.28,4.43,3.14,8.69,4.35,13.12,1.84,6.69,6.41,10.46,12.53,12.85,3.92,1.53,7.68,3.87,11.73,4.56,9.89,1.68,14.94,8.51,19.26,16.45a16.08,16.08,0,0,0,1.73,2.75,20.43,20.43,0,0,0,2.67,2.34c1.66,1.32,3.74,2.31,5,3.95,2.5,3.35,5.71,4.72,11.14,4.79v.93h9v-.09h.14a14.11,14.11,0,0,0,5.26.2c14.58-1.29,29.08-3.84,43.83-2.77q10.67.78,15.46-8.91c1.67-3.41,4.1-6.49,5.4-10,2.05-5.53,5.6-8.77,11.37-9.66,6.41-1,12.79-2.18,19.23-2.83,1.42-.14,4.29,1.57,4.33,2.52.19,4.39,2.74,4.65,6.07,4.57s-17.2,33.77-16.45,36.7c.57,2.21,27.31-24.87,28.36-22.79.91,1.8,2.75,3.5,2.81,5.29.2,6.14,5.49,10.75,4.08,17.81-.7,3.51-2.1,7.19-2.14,11,0,1.26-.5,2.84.08,3.72,1.62,2.49,1.16,3.86-1.46,5.07a3.29,3.29,0,0,0-1.54,2.58c.14,4.66,1,9.34.76,14-.4,6.56,2.89,8,8.33,8.3,11.75.69,22.91-1.94,34-5.32,4.93-1.49,8.07-4.4,9-9.43.86-4.81,1-9.79,2.29-14.46,1-3.62,2.39-8.22,5.15-10,6.42-4.27,13.55-8.1,21.81-3.53,3.1,1.72,3.81,3.36,1.29,5.89-2.29,2.29-5.14,4-7.35,6.42-1.23,1.33-2.57,3.63-2.25,5.15,1.27,6,3.35,11.74,8.35,15.89a19.76,19.76,0,0,1,4.57,4.6c6.39,10.71,6.54,14.66-5.36,18.27-3.11.94-6.34,1.52-9.52,2.23-6.36,1.4-9.2,5-9,11.07.19,4.62,3,7.23,6.79,8.84,9,3.85,18.09,7.35,27.07,11.18,2.16.91,4.9,2.07,5.84,3.9,4.26,8.29,10.15,13.09,19.89,14.32,7.46,1,9.49,6.66,5.47,13-5.92,9.38-3.5,16.74,2.67,24.13,5,6,9,12.5,10.1,20.49.54,3.89,1.47,7.74,2.34,11.58,1.51,6.7,2.89,7.77,9.74,8.13,7.31-1,14.61-1.94,21.91-3V595h8.16V591.7a1.46,1.46,0,0,1-.37-.33,11.62,11.62,0,0,0-1-1.31h1.39v1.64c.27.16.61.28.88.44.21-.57.69-1.19.61-1.73-.28-1.86-1-3.7-1.11-5.57-.26-4.67-.88-9.45-.15-14,.48-3,3.06-5.64,4.7-8.44,2.32,1.9,4.64,3.79,6.93,5.72a4.44,4.44,0,0,1,.66,1,11.58,11.58,0,0,0,9.89,5.47c4.76.07,9.5.44,14.25.68l.09.44c6.58-.83,13.22-1.29,19.7-2.59a9.48,9.48,0,0,0,8-8.65c.26-4.57-3.5-5.73-6.48-7.39a54.93,54.93,0,0,0-6.78-2.8c-2.78-1.08-5.56-2.17-8.38-3.17-3.39-1.22-4.57-3.62-2.91-6.68a37.09,37.09,0,0,1,6.18-8.86,13,13,0,0,0,4.15-11.7,34.14,34.14,0,0,1,.24-9.68c1.07-6.32,5-8.28,10-4.42a257.74,257.74,0,0,1,19.76,17.45c2.3,2.18,4.44,3.19,7.58,2.76,6.72-1,13.47-1.7,20.22-2.44,6.23-.69,12.32-1,18.33,1.92a61.62,61.62,0,0,0,12.77,4.06C668,534.64,670.37,532.52,669.31,527.8ZM423.71,105.4h.15v-.13Z"/><path class="cls-2" d="M592.36,429.33c.34,23.63-62.13-39.48-27.51-30.93.69-4-21.06-25.9-25.58-23.5,4.13-2.33,12-.45,16.18-2.38-.82.37,2.73-3.32,2.42-3,8.64-7.65,6-32.06-8.39-34.37,14.38,2.37,2.19-26.65,1.07-28-17-19.79-29.59,14.29-36.16,7.43-1.57-1.63,9.15-9.84,7.66-13.54-.78-1.93-14.93,7.41-17.71,7.39,20.44,0,53.11-73.93,51.08-80.81,3,10,20.5,12.63,18.14-1.23-2.43-14.27-1.67-24-6.28-37.27,7.11,19,15.78-45.52,27.5-44.68C591,140,568.2,136.6,570,146.61c-3.62-22-19.75-4.33-34.14-10.94-1.52-.7-31.34-17.18-31-16.9.34,7.7,4.79,14.77,3.31,22.44,3.37-26.61-20.18-19.38-26.94-27.29-11.29-13.19-11.91-19.85-18.9-31.59.38.63-19.73,17.55-27.57,9.58-1.46-1.49,2.64-11.83,2.64-15,0-1.15-21.87-13.84-24.09-15.24.84.53-4.8-1.17-3.53-1.28C388.8,62.11,384.89,31.23,374,27.44,333.38,13.31,342.87,66.56,340.67,82c-7.88-4.67-84.33,35.55-51.73,42.21-29.84,5.16-40.91-1.51-61.32-8.25,13.09,4.32-28.42-18.28-25.41-9.76,4,11.22,21.69,54.72,18.42,62.26-2.37,5.46-22-.2-17.16-4.46-8.67-.34-34.72,9.53-37.59,4.31-.44-.81-.84-1.63-1.2-2.48-7.88-9.5-25.1-29-31.6.11,2.25-10.46-26.14-7.65-36.79-3.14a19.71,19.71,0,0,1-2,.7c-7.32,4.83-4.94,3.13-7,14.24,4.34,1.93,14.8-2.47,17.77-4.61-6.55,6.27-1.54,7.24,3.66,7.46-.76,4.54-13.26-4.33-16.37,1-3.19-.52,12.78,6,13.16,6.44,4.3,5.42-17,4.84-18,6.9,2.35,2,20.44,6.13,12.51,15.35,4,.77,35.07,0,34.89.69-1.86,4.4,3.72,11.72,5.72,6.59,1.05-1.9,8.4,16.43,8.69,16.35-2.86.78,14.38-12.18,10.93-8.5,12.25.5-4.21,5.71-3.65,4.46-.27,0,22.93,5,18,3.24-.63.44-3.37,12.18-4,12.73,5.68,3.81,13.73-.91,18.4.39-18.5,5.46,6.24,15.6,7.25,19.78-2.63-11-7.42,8-4.83,16,2.16,6.64,15,14.58,16,17.64,1.7,4.85,17.32,8.29,17.93,8.83-6.14,3.37-14.95-2-18.59.42,4.11,9.84,15,8.78,18.4,18.89.34,1-3.49,13.29-3.55,2.82,0-5.08-5.21-6.85-8-10.2-1,17.26,37.92,42.52,26.84,58.58-1.72-8.34-8.41-24.57-13.93-29.49-4.07-3.63-10.82,51.13-10.9,55.57q3.1-15.63,9.89-1.83c-6.93.31-36.63,74.14-36.16,75.77,4,13.93,13.87-4,12.48,15,.17-2.36,51.07,27.8,49.57,12.84-.88,11.55,34.63,24.35,34.13,3.2q-4.42,13,8.48,11.41l.42-9.92c22.41,0,35.29,15.47,57.07,13.54-.2,0-12.34,3.85-11.61,6.47,5,18.16,49.56,8.25,62,6.08,3-13-12.65-30.85-8.15-40.21,5.85-12.18,54.7-19.91,57.46-26.32,4.67,5,11.94,2.2,9.68,10.15,1.12.24,29.6,2.74,34.51-.41,4.06,9.46,1.1,7,15.24,6.56-2.33,11.76,19.7,9.52,16.91,10.4,22.14-5.91,33.16-26.29,56.56-43-1,.71,4.09-5.82,3.86-4.43C588.5,446.91,594,431.64,592.36,429.33Z"/></g></g></svg>