<?xml version="1.0" encoding="utf-8"?>
<!-- Generator: Adobe Illustrator 22.1.0, SVG Export Plug-In . SVG Version: 6.00 Build 0)  -->
<svg version="1.1" id="Layer_1" xmlns="http://www.w3.org/2000/svg" xmlns:xlink="http://www.w3.org/1999/xlink" x="0px" y="0px"
	 viewBox="0 0 554.8 375.9" style="enable-background:new 0 0 554.8 375.9;" xml:space="preserve">
<style type="text/css">
	.st0{opacity:0.4;}
	.st1{fill:#BF5317;}
</style>
<g class="st0">
	<g>
		<g>
			<g>
				<path class="st1" d="M218.9,278.1c0,65.2-36.5,97.8-109.4,97.8C36.5,375.9,0,343.3,0,278.1c0-57.5,14.6-110.9,43.8-160.3
					C72.9,68.5,108.1,29.2,149.3,0l54.1,33.5c-28.3,47.2-42.5,93.6-42.5,139c0,6.9,0.4,13.3,1.3,19.3c16.3,5.2,29.8,15.7,40.6,31.5
					C213.5,239.3,218.9,257.5,218.9,278.1z"/>
			</g>
			<g>
				<path class="st1" d="M554.8,278.1c0,65.2-36.5,97.8-109.4,97.8c-73,0-109.4-32.6-109.4-97.8c0-57.5,14.6-110.9,43.8-160.3
					C408.8,68.5,444,29.2,485.2,0l54.1,33.5c-28.3,47.2-42.5,93.6-42.5,139c0,6.9,0.4,13.3,1.3,19.3c16.3,5.2,29.8,15.7,40.6,31.5
					C549.4,239.3,554.8,257.5,554.8,278.1z"/>
			</g>
		</g>
	</g>
</g>
</svg>
