<svg xmlns="http://www.w3.org/2000/svg" viewBox="0 0 997.2 994.43"><defs><style>.cls-1{fill:#febd11;}</style></defs><title>sunny</title><g id="Layer_2" data-name="Layer 2"><g id="Layer_1-2" data-name="Layer 1"><g id="b"><path id="a" class="cls-1" d="M425.09,516,498.69,0l73.6,516"/><path id="a-2" data-name="a" class="cls-1" d="M423.64,493.62,646.07,22.24,564.3,537"/></g><g id="c"><g id="b-2" data-name="b"><path id="a-3" data-name="a" class="cls-1" d="M428.85,471.82,780.34,86.94,550.47,554.74"/><path id="a-4" data-name="a" class="cls-1" d="M440.26,452.51,889.57,188.34,532,567.6"/></g></g><g id="d"><g id="b-3" data-name="b"><path id="a-5" data-name="a" class="cls-1" d="M456.85,437.43l507.21-120-453.43,257"/><path id="a-6" data-name="a" class="cls-1" d="M477.14,427.9,997.2,462.72l-509.05,112"/></g><g id="c-2" data-name="c"><g id="b-4" data-name="b"><path id="a-7" data-name="a" class="cls-1" d="M499.35,424.78,986,611.35,466.6,568.29"/><path id="a-8" data-name="a" class="cls-1" d="M521.49,428.35,931.56,750.08,447.89,555.83"/></g></g></g><g id="b-5" data-name="b"><path id="a-9" data-name="a" class="cls-1" d="M521.49,428.35,931.56,750.09,447.89,555.83"/><path id="a-10" data-name="a" class="cls-1" d="M541.59,438.28l297,428.31L433.69,538.4"/></g><g id="c-3" data-name="c"><g id="b-6" data-name="b"><path id="a-11" data-name="a" class="cls-1" d="M557.87,453.69,715.44,950.53l-290.19-433"/><path id="a-12" data-name="a" class="cls-1" d="M568.89,473.22,573,994.43,423.33,495.16"/></g></g><g id="d-2" data-name="d"><g id="b-7" data-name="b"><path id="a-13" data-name="a" class="cls-1" d="M573.66,495.13,424,994.4l4.11-521.2"/><path id="a-14" data-name="a" class="cls-1" d="M571.76,517.47l-290.19,433L439.13,453.61"/></g><g id="c-4" data-name="c"><g id="b-8" data-name="b"><path id="a-15" data-name="a" class="cls-1" d="M563.36,538.26,158.44,866.46l297-428.32"/><path id="a-16" data-name="a" class="cls-1" d="M549.2,555.65,65.54,749.92,475.6,428.17"/></g></g></g><g id="b-9" data-name="b"><path id="a-17" data-name="a" class="cls-1" d="M549.2,555.65,65.53,749.91,475.6,428.17"/><path id="a-18" data-name="a" class="cls-1" d="M530.55,568.1,11.11,611.16,497.79,424.59"/></g><g id="c-5" data-name="c"><g id="b-10" data-name="b"><path id="a-19" data-name="a" class="cls-1" d="M509.06,574.49,0,462.53,520.06,427.7"/><path id="a-20" data-name="a" class="cls-1" d="M486.64,574.26,33.2,317.23l507.21,120"/></g></g><g id="d-3" data-name="d"><g id="b-11" data-name="b"><path id="a-21" data-name="a" class="cls-1" d="M465.28,567.44,107.73,188.19,557.05,452.35"/><path id="a-22" data-name="a" class="cls-1" d="M446.88,554.63,217,86.83,568.5,471.7"/></g><g id="c-6" data-name="c"><g id="b-12" data-name="b"><path id="a-23" data-name="a" class="cls-1" d="M433.08,537,351.3,22.19,573.74,493.56"/><path id="a-24" data-name="a" class="cls-1" d="M425.09,516,498.69,0l73.6,516"/></g></g></g></g></g></svg>