<?xml version="1.0" encoding="utf-8"?>
<!-- Generator: Adobe Illustrator 22.1.0, SVG Export Plug-In . SVG Version: 6.00 Build 0)  -->
<svg version="1.1" id="Layer_1" xmlns="http://www.w3.org/2000/svg" xmlns:xlink="http://www.w3.org/1999/xlink" x="0px" y="0px"
	 viewBox="0 0 997.2 469.7" style="enable-background:new 0 0 997.2 469.7;" xml:space="preserve">
<style type="text/css">
	.st0{clip-path:url(#SVGID_2_);}
	.st1{fill:#FEBD11;}
</style>
<title>sunny2</title>
<g id="Layer_2_1_">
	<g id="Layer_1-2">
		<g>
			<defs>
				<rect id="SVGID_1_" x="0.3" y="0.6" width="996.5" height="468.4"/>
			</defs>
			<clipPath id="SVGID_2_">
				<use xlink:href="#SVGID_1_"  style="overflow:visible;"/>
			</clipPath>
			<g class="st0">
				<g id="b">
					<path id="a" class="st1" d="M448.7,507.7l70.6-419.3l70.6,419.3"/>
					<path id="a-2" class="st1" d="M447.3,489.5l213.4-383l-78.4,418.3"/>
				</g>
				<g id="c">
					<g id="b-2">
						<path id="a-3" class="st1" d="M452.3,471.8l337.2-312.7L569,539.2"/>
						<path id="a-4" class="st1" d="M463.2,456.1l431-214.7l-343,308.2"/>
					</g>
				</g>
				<g id="d">
					<g id="b-3">
						<path id="a-5" class="st1" d="M479.1,443.9l486.6-97.5l-435,208.8"/>
						<path id="a-6" class="st1" d="M498.6,436.2l498.9,28.3l-488.3,91"/>
					</g>
					<g id="c-2">
						<g id="b-4">
							<path id="a-7" class="st1" d="M519.9,433.6l466.9,151.6l-498.3-35"/>
							<path id="a-8" class="st1" d="M541.1,436.5l393.4,261.4l-464-157.8"/>
						</g>
					</g>
				</g>
				<g id="b-5">
					<path id="a-9" class="st1" d="M541.1,436.5l393.4,261.4l-464-157.8"/>
					<path id="a-10" class="st1" d="M560.4,444.6l284.9,348L456.9,525.9"/>
				</g>
				<g id="c-3">
					<g id="b-6">
						<path id="a-11" class="st1" d="M576.1,457.1l151.2,403.7L448.8,509"/>
						<path id="a-12" class="st1" d="M586.6,473l4,423.5L447,490.8"/>
					</g>
				</g>
				<g id="d-2">
					<g id="b-7">
						<path id="a-13" class="st1" d="M591.2,490.8L447.6,896.4l3.9-423.5"/>
						<path id="a-14" class="st1" d="M589.4,508.9L311,860.7L462.1,457"/>
					</g>
					<g id="c-4">
						<g id="b-8">
							<path id="a-15" class="st1" d="M581.3,525.8L192.9,792.5l284.9-348"/>
							<path id="a-16" class="st1" d="M567.7,539.9l-464,157.9l393.4-261.4"/>
						</g>
					</g>
				</g>
				<g id="b-9">
					<path id="a-17" class="st1" d="M567.7,539.9l-464,157.9l393.4-261.4"/>
					<path id="a-18" class="st1" d="M549.8,550L51.5,585l466.9-151.6"/>
				</g>
				<g id="c-5">
					<g id="b-10">
						<path id="a-19" class="st1" d="M529.2,555.2l-488.4-91L539.8,436"/>
						<path id="a-20" class="st1" d="M507.7,555.1l-435-208.8l486.6,97.5"/>
					</g>
				</g>
				<g id="d-3">
					<g id="b-11">
						<path id="a-21" class="st1" d="M487.2,549.5l-343-308.2l431,214.6"/>
						<path id="a-22" class="st1" d="M469.6,539.1L249,159l337.2,312.7"/>
					</g>
					<g id="c-6">
						<g id="b-12">
							<path id="a-23" class="st1" d="M456.3,524.7l-78.5-418.3l213.4,383"/>
							<path id="a-24" class="st1" d="M448.7,507.7l70.6-419.3l70.6,419.3"/>
						</g>
					</g>
				</g>
			</g>
		</g>
	</g>
</g>
</svg>
