<svg xmlns="http://www.w3.org/2000/svg" viewBox="0 0 455.76 456.02"><defs><style>.cls-1{fill:#b23232;}.cls-2{fill:#932132;}.cls-3{fill:#d33c3c;}</style></defs><title>tanker_1</title><g id="Layer_2" data-name="Layer 2"><g id="Capa_1" data-name="Capa 1"><path class="cls-1" d="M392.53,305.26c-2.84,54.05-69.68,74-102.4,32.71-31.28,35.56-85.33,35.56-116.62-1.42C138,345.08,99.56,319.48,102.4,274c-56.89-24.18-62.58-103.82-10-135.11C61.16,82,113.78,13.71,177.78,27.93c28.44-34.14,79.64-37,110.93-8.54C337.07-9,396.8,22.24,403.91,76.28c46.93,7.11,64,65.43,31.29,98.14C476.45,219.93,452.27,295.31,392.53,305.26Z"/><circle class="cls-1" cx="100.98" cy="377.79" r="39.82"/><path class="cls-2" d="M140.8,377.79a40.15,40.15,0,0,1-74,21.34c5.69,4.26,12.8,5.69,21.34,5.69A39.76,39.76,0,0,0,128,365c0-7.11-2.84-15.64-5.69-21.33C133.69,352.19,140.8,365,140.8,377.79Z"/><ellipse class="cls-3" cx="89.84" cy="355.11" rx="11.38" ry="5.69" transform="translate(-110.63 48.54) rotate(-18.98)"/><path class="cls-3" d="M203.38,100.46c-22.76,7.11-44.09,4.27-48.36-7.11s10-27,32.71-35.56c22.76-7.11,44.09-4.26,48.36,7.12S226.13,91.93,203.38,100.46Z"/><circle class="cls-1" cx="29.87" cy="426.15" r="29.87"/><path class="cls-2" d="M59.73,426.15c0,17.07-12.8,29.87-29.86,29.87C18.49,456,10,450.33,4.27,441.8a28.67,28.67,0,0,0,15.64,4.26A30,30,0,0,0,49.78,416.2a28.65,28.65,0,0,0-4.27-15.65C54.05,406.24,59.73,414.77,59.73,426.15Z"/><ellipse class="cls-3" cx="22.56" cy="408.88" rx="7.11" ry="4.27" transform="translate(-131.78 29.58) rotate(-18.98)"/><path class="cls-2" d="M392.53,305.26c-2.84,54.05-69.68,74-103.82,32.71-31.29,35.56-85.33,35.56-116.62-1.42-27,7.11-58.31-8.53-68.27-37,92.45,18.49,284.45,27,328.54-206.22,21.33,21.33,24.17,58.31,0,82.49C476.45,219.93,452.27,295.31,392.53,305.26Z"/></g></g></svg>