<svg id="Layer_1" data-name="Layer 1" xmlns="http://www.w3.org/2000/svg" viewBox="0 0 1888.84 769.79"><defs><style>.cls-1{fill:#030104;}.cls-2{font-size:37.57px;}.cls-2,.cls-5,.cls-8{font-family:Raleway-Bold, Raleway;font-weight:700;}.cls-3{letter-spacing:-0.02em;}.cls-4{letter-spacing:-0.03em;}.cls-5{font-size:36.44px;}.cls-6{letter-spacing:-0.01em;}.cls-7{letter-spacing:-0.01em;}.cls-8{font-size:49.49px;}.cls-9{letter-spacing:0em;}.cls-10{letter-spacing:-0.07em;}.cls-11{letter-spacing:0em;}.cls-12{fill:#1d1d1b;}</style></defs><title>turen</title><path d="M455,273.38c8.62,36.52-136.77,113.4-148.5,116.17-6.58,1.55-14.44,1.59-16.07-5.3-.54-2.3,1-6.18,4.16-11.16h0L278.49,353.7c-2.17-2.63-1.89-6.67.59-8.6l1.67-1.29A11.38,11.38,0,0,1,291.32,342l22.55,7.22c6.46-7,13.9-14.48,21.83-22l-45.17-19.29a6.25,6.25,0,0,1-2.19-9.53l2.62-3a20.66,20.66,0,0,1,16.87-7.2l68.52,4.08c17.83-13.71,34.42-24.12,45.1-26.64,2.85-.67,5.73-1.26,8.53-1.68l-17,14.47,1.28,7.5,26.15-22.63C448,263.55,453.25,266.14,455,273.38ZM392,354.8,423.13,380a4.69,4.69,0,0,0,6.15,0l2.8-2.45c5.1-4.45,6.89-12.25,4.43-19.33l-9.85-28.34a2.57,2.57,0,0,0-3.84-1.55L392,350A3.07,3.07,0,0,0,392,354.8Z"/><path class="cls-1" d="M117.5,487.21c-18.1-3-35.28,9.59-38.37,28.14C73.79,547.42,99.6,594.7,99.6,594.7s39.73-36.37,45.07-68.44C147.76,507.71,135.6,490.23,117.5,487.21Zm-8.68,52.14a18.4,18.4,0,1,1,20.71-15.2A18.17,18.17,0,0,1,108.82,539.35Z"/><text class="cls-2" transform="matrix(0.86, 0.16, -0.19, 0.98, 45.72, 617.88)"><tspan class="cls-3">S</tspan><tspan x="22.47" y="0">YRI</tspan><tspan class="cls-4" x="82.99" y="0">A</tspan></text><g id="_Group_" data-name="&lt;Group&gt;"><ellipse cx="1417.69" cy="411.41" rx="7.22" ry="9.56" transform="translate(-0.14 822.34) rotate(-32.35)"/><path d="M1483.58,383.59l-17.85-4.9-5.09-3.18-4.08-7.46,0-.06c-2-3.65-5.9-5.46-8.71-4.1l-9.12,4.42c-2.8,1.36-3.53,5.4-1.53,9.06l.61,1.12c1.84-7.34,1.69-6.83,1.89-7.29-.08.53-.05-1.19-.07,23a5.57,5.57,0,0,0,.2,1.45l5.64,20.79.15.46a2.17,2.17,0,0,0-.6.4l-6.8,6.15-11.4.58,5.9-2.32c-1.6-1.6-3.76-2.14-5.31-1.16l-8.22,5.2c-2.26-.86-4.39-.86-6,.18-4,2.56-3.63,10.47.93,17.67s11.53,10.95,15.57,8.39a5.92,5.92,0,0,0,2.51-3.86l1.48,2.34,5.63,10.42-.61,13.58a5.5,5.5,0,0,0,3.51,5.2A2.81,2.81,0,0,0,1446,477l.67-14.92a5.24,5.24,0,0,0-.65-2.67l-5.25-9.73,1-.63,8.2,9,6.85,13.87c1.08,2.19,3.36,3.4,5.09,2.71s2.25-3,1.17-5.21l-7.21-14.62a5.66,5.66,0,0,0-.92-1.35l-7.37-8.06-6.5-10.67-12.31-3,12.28-.63a2.37,2.37,0,0,0,1.51-.61l7.43-6.72a3.18,3.18,0,0,0,.85-2.86,3,3,0,0,0,1.28-.43c1.27-.8,1.83-2.56,1.3-4.53L1448,395.87c0-22.35,0-21.77,0-22.35l4.25,22.21,5.87,18,12.55,15.43,7.52,25.48c.92,3.12,3.79,5.43,6.42,5.16s4-3,3.08-6.12l-8-27a7.87,7.87,0,0,0-1.45-2.72l-13.88-17.09,2.18-1.05L1484.08,420l20.1,22.26c2.22,2.45,5.38,2.87,7.06.92s1.24-5.5-1-7.95l-20.51-22.71a6.56,6.56,0,0,0-.86-.81l-15.14-12.19c-1.24-2.26-4.85-8.89-6.12-11.21l16,4.4c2.32.63,4.18-.9,4.17-3.42A6.24,6.24,0,0,0,1483.58,383.59Z"/><path d="M1442.65,361.94c4.17-2,5.2-8,2.25-13.41s-8.71-8.11-12.89-6.08-5.2,8-2.26,13.42S1438.5,364,1442.65,361.94Z"/></g><path class="cls-1" d="M1133.69,450.12c-18.31-1.23-34.17,13-35.44,31.74-2.19,32.44,28.1,77,28.1,77s36-40.07,38.19-72.51C1165.81,467.57,1152,451.36,1133.69,450.12Zm-3.56,52.73a18.39,18.39,0,1,1,19.14-17.13A18.16,18.16,0,0,1,1130.13,502.85Z"/><text class="cls-5" transform="matrix(0.92, 0.04, -0.05, 1, 1086.95, 582.03)">I<tspan class="cls-6" x="10.42" y="0">R</tspan><tspan x="34.25" y="0">A</tspan><tspan class="cls-7" x="58.74" y="0">K</tspan></text><path class="cls-1" d="M1752.84,139c-28,.55-50.27,25.42-49.68,55.55,1,52.1,53.1,119.05,53.1,119.05s49.42-68.94,48.4-121C1804.07,162.39,1780.87,138.4,1752.84,139Zm1.66,84.68c-15.14.29-27.67-12.66-28-28.93s11.69-29.7,26.83-30,27.66,12.66,28,28.93S1769.63,223.33,1754.5,223.63Z"/><text class="cls-8" transform="matrix(0.71, -0.02, 0.03, 1, 1654.99, 362.61)">KURDI<tspan class="cls-9" x="152.72" y="0">S</tspan><tspan class="cls-10" x="182.81" y="0">T</tspan><tspan class="cls-11" x="209.98" y="0">AN</tspan></text><path d="M753.74,450.05c-7.93-2.5-16.16,1.15-18.37,8.14s2.41,14.73,10.34,17.24,16.14-1.15,18.36-8.16S761.65,452.56,753.74,450.05Zm-6,19c-4-1.26-6.29-5.13-5.18-8.64s5.23-5.31,9.19-4.06,6.27,5.12,5.17,8.61S751.66,470.34,747.72,469.09Zm-6.35-22.94L709.23,436a2.29,2.29,0,0,0-3,1.31l-2,6.18a2.3,2.3,0,0,0,1.66,2.77l25.77,8.15A17.06,17.06,0,0,1,741.37,446.15Zm87.41,27.64c-7.91-2.5-16.14,1.15-18.35,8.14s2.41,14.74,10.32,17.24S836.89,498,839.11,491,836.71,476.3,828.78,473.79Zm-6,19c-4-1.26-6.27-5.12-5.16-8.63s5.21-5.32,9.17-4.07,6.27,5.12,5.17,8.61S826.72,494.08,822.76,492.83Zm43.41-7.21-5.6-1.77,8.76-27.69a15.73,15.73,0,0,0-.28-10.11l-8.22-22.83a20.13,20.13,0,0,0-13-12l-21.77-6.88a4.58,4.58,0,0,0-5.9,2.62l-18.44,58.28L766.1,454a17.18,17.18,0,0,1,3.11,12.29l37.6,11.89c3.87-7.67,13.74-11.43,23.26-8.42s15.42,11.76,14.2,20.28l18.65,5.9a2.29,2.29,0,0,0,3-1.31l2-6.2A2.28,2.28,0,0,0,866.17,485.62Zm-12.48-40.4L825,436.14a2.29,2.29,0,0,1-1.66-2.77l4.45-14.08a2.31,2.31,0,0,1,3-1.31l17.5,5.53a2.55,2.55,0,0,1,1.62,1.46l6.77,17.65C857.25,444.31,855.56,445.81,853.69,445.22ZM792,457.68l-80.69-25.52a4.6,4.6,0,0,1-3.32-5.54l5.8-18.34a4.59,4.59,0,0,1,5.9-2.62l80.69,25.53a4.58,4.58,0,0,1,3.32,5.54l-5.8,18.34A4.57,4.57,0,0,1,792,457.68Zm-38.1-47.92-32.27-10.21a4.57,4.57,0,0,1-3.32-5.53l5.8-18.35a4.57,4.57,0,0,1,5.9-2.61l32.27,10.21a4.58,4.58,0,0,1,3.33,5.53l-5.81,18.34A4.58,4.58,0,0,1,753.93,409.76Zm48.41,15.32-32.27-10.21a4.59,4.59,0,0,1-3.32-5.54l5.8-18.34a4.59,4.59,0,0,1,5.9-2.62l32.28,10.21a4.6,4.6,0,0,1,3.32,5.54l-5.8,18.34A4.6,4.6,0,0,1,802.34,425.08Z"/><path class="cls-12" d="M66.55,656.67l2-8.67q-10.89-2.46-21.66-5.34l-2.31,8.58Q55.5,654.15,66.55,656.67Z"/><path class="cls-12" d="M99.71,663l1.41-8.77-5.51-.89-5.49-1c-3.66-.63-7.3-1.39-11-2.11L77.4,659c3.71.73,7.41,1.5,11.13,2.14l5.58,1Z"/><path class="cls-12" d="M133.19,667.37l.87-8.84c-7.4-.74-14.79-1.59-22.15-2.63l-1.23,8.79C118.16,665.75,125.67,666.62,133.19,667.37Z"/><path class="cls-12" d="M166.89,669.59l.31-8.88c-3.71-.17-7.43-.27-11.14-.5s-7.42-.43-11.12-.73l-.69,8.86c3.77.3,7.55.49,11.32.74S163.12,669.42,166.89,669.59Z"/><path class="cls-12" d="M200.66,669.68l-.25-8.88c-3.71.09-7.43.22-11.15.2s-7.43.08-11.15,0l-.12,8.88c3.78.12,7.56,0,11.34,0S196.89,669.78,200.66,669.68Z"/><path class="cls-12" d="M234.41,667.52l-.89-8.84c-7.39.75-14.8,1.34-22.21,1.72l.46,8.87C219.34,668.89,226.89,668.29,234.41,667.52Z"/><polygon class="cls-12" points="267.87 663.08 266.44 654.31 260.94 655.21 255.42 656 249.9 656.79 244.36 657.47 245.44 666.29 251.06 665.6 256.67 664.8 262.28 663.99 267.87 663.08"/><polygon class="cls-12" points="301.02 656.74 299.1 648.06 288.17 650.35 285.44 650.92 282.7 651.43 277.21 652.45 278.81 661.19 284.38 660.15 287.16 659.64 289.93 659.06 301.02 656.74"/><path class="cls-12" d="M333.74,648.53,331.35,640l-2.68.77-2.7.71-5.4,1.4c-3.61.93-7.2,1.91-10.83,2.72l2.07,8.64c3.69-.82,7.33-1.82,11-2.76l5.48-1.42,2.74-.72Z"/><path class="cls-12" d="M366,638.62l-2.83-8.42-2.64.91-2.66.84-5.32,1.69-5.32,1.69c-1.78.57-3.55,1.12-5.35,1.62l2.54,8.51c1.82-.5,3.62-1.06,5.41-1.64l5.4-1.71,5.4-1.71,2.7-.86Z"/><path class="cls-12" d="M397.66,627l-3.28-8.26-10.43,4c-3.48,1.32-6.95,2.68-10.48,3.86l3,8.37c3.58-1.2,7.1-2.57,10.62-3.91Z"/><polygon class="cls-12" points="428.64 613.62 424.86 605.58 414.76 610.27 404.46 614.58 407.89 622.78 418.35 618.4 428.64 613.62"/><polygon class="cls-12" points="458.7 598.04 454.27 590.34 449.45 593.09 447.04 594.47 444.57 595.75 434.69 600.86 438.67 608.8 448.77 603.59 451.29 602.27 453.76 600.86 458.7 598.04"/><path class="cls-12" d="M487.3,579.86l-5.11-7.27-9.2,6.25c-3.07,2.07-6.25,4-9.37,5.95l4.66,7.57c3.2-2,6.46-4,9.61-6.1Z"/><polygon class="cls-12" points="514.38 560.01 509.14 552.83 491.06 566.21 496.31 573.38 514.38 560.01"/><polygon class="cls-12" points="541.95 542.07 537.65 534.29 527.76 540.11 518.21 546.39 523.24 553.71 532.47 547.65 541.95 542.07"/><path class="cls-12" d="M571.83,528.6l-3.1-8.33c-7.18,2.51-14.16,5.68-21.09,8.88l3.88,8C558.18,534.08,564.86,531,571.83,528.6Z"/><polygon class="cls-12" points="603.44 518.42 600.85 509.93 590.14 513.17 579.27 516.57 582.05 525.01 592.63 521.7 603.44 518.42"/><path class="cls-12" d="M635.44,509.82l-1.93-8.67c-7.41,1.64-14.76,3.55-22,5.62l2.44,8.55C621.05,513.28,628.21,511.42,635.44,509.82Z"/><path class="cls-12" d="M668,504.31l-1-8.83q-11.31,1.31-22.52,3.42l1.64,8.73Q657,505.58,668,504.31Z"/><path class="cls-12" d="M700.89,502.28l-.06-8.88c-3.8,0-7.6.15-11.4.27s-7.59.39-11.38.72l.72,8.86c3.68-.32,7.36-.5,11.05-.71S697.2,502.28,700.89,502.28Z"/><path class="cls-12" d="M733.82,503.88l.93-8.84c-7.57-.78-15.16-1.27-22.76-1.53l-.26,8.88C719.11,502.64,726.48,503.12,733.82,503.88Z"/><path class="cls-12" d="M766.37,509.13l1.89-8.68c-3.72-.77-7.43-1.59-11.18-2.21-1.87-.32-3.74-.7-5.62-1l-5.64-.84-1.25,8.8,5.48.82c1.83.27,3.64.63,5.46.94C759.15,507.59,762.76,508.38,766.37,509.13Z"/><path class="cls-12" d="M798.36,517.72l2.57-8.51c-7.21-2.18-14.44-4.27-21.81-6.21l-2.2,8.61C784,513.49,791.22,515.55,798.36,517.72Z"/><path class="cls-12" d="M830.08,528l2.87-8.41c-3.56-1.22-7.12-2.43-10.71-3.59s-7.15-2.34-10.74-3.47L808.82,521q5.34,1.68,10.65,3.44C823,525.54,826.54,526.74,830.08,528Z"/><path class="cls-12" d="M861.52,539.15l3.07-8.33c-7.05-2.59-14.11-5.16-21.21-7.66l-3,8.38Q851,535.26,861.52,539.15Z"/><polygon class="cls-12" points="892.83 550.92 895.99 542.61 874.93 534.66 871.82 542.98 892.83 550.92"/><rect class="cls-12" x="910.75" y="543.44" width="8.88" height="22.48" transform="translate(71.36 1212.86) rotate(-69.17)"/><polygon class="cls-12" points="955.47 574.7 958.59 566.38 937.57 558.44 934.42 566.75 955.47 574.7"/><path class="cls-12" d="M986.94,586.35l3-8.36q-10.53-3.78-21-7.75l-3.12,8.33C972.8,581.2,979.85,583.81,986.94,586.35Z"/><path class="cls-12" d="M1019.17,596.67l2.33-8.58c-7.12-2-14.22-4.11-21.25-6.53L997.42,590C1004.57,592.44,1011.85,594.61,1019.17,596.67Z"/><polygon class="cls-12" points="1052.46 603.64 1053.76 594.86 1048.29 593.97 1045.56 593.52 1042.85 593 1037.42 591.94 1032.02 590.72 1030.01 599.37 1035.59 600.63 1041.19 601.73 1044 602.27 1046.82 602.73 1052.46 603.64"/><path class="cls-12" d="M1086.23,606.82l.43-8.88c-7.41-.32-14.79-.93-22.15-1.71l-1,8.83C1071.09,605.86,1078.66,606.49,1086.23,606.82Z"/><path class="cls-12" d="M1119.33,609.09l1-8.83-4.37-.55-4.6-.65a73.21,73.21,0,0,0-9.36-.63l-4.42-.1-.22,8.89,4.33.09a64.46,64.46,0,0,1,8.68.58l4.36.62C1116.25,608.7,1117.78,608.92,1119.33,609.09Z"/><path class="cls-12" d="M1153.74,608.6l-1-8.83c-3.65.35-7.31.81-11,.93-1.82.07-3.65.25-5.46.23l-5.45,0-.18,8.88,5.81,0c1.94,0,3.84-.18,5.77-.25C1146.14,609.44,1149.93,609,1153.74,608.6Z"/><path class="cls-12" d="M1187.2,603l-1.84-8.7-5.45,1.17c-1.81.4-3.64.68-5.46,1l-5.47,1-2.74.49-2.74.4,1.34,8.78,2.82-.41,2.8-.5,5.6-1c1.86-.35,3.75-.64,5.59-1.05Z"/><path class="cls-12" d="M1220,595l-2.3-8.58c-7.18,2-14.43,3.71-21.66,5.5l2,8.65C1205.36,598.76,1212.73,597.06,1220,595Z"/><polygon class="cls-12" points="1252.31 585.73 1249.72 577.23 1228.23 583.55 1230.65 592.11 1252.31 585.73"/><path class="cls-12" d="M1284.32,575.51l-2.78-8.43c-7.1,2.39-14.24,4.58-21.35,6.86l2.66,8.47C1270,580.12,1277.21,577.91,1284.32,575.51Z"/><polygon class="cls-12" points="1316.12 564.85 1313.24 556.45 1291.97 563.63 1294.78 572.05 1316.12 564.85"/><path class="cls-12" d="M1347.79,553.72l-3-8.36c-7,2.51-14.07,5-21.15,7.48l2.92,8.39C1333.64,558.79,1340.71,556.24,1347.79,553.72Z"/><path class="cls-12" d="M1379.26,542l-3.19-8.29c-7,2.66-14,5.32-21,7.88l3.07,8.34C1365.21,547.37,1372.23,544.69,1379.26,542Z"/><path class="cls-12" d="M1410.48,529.54l-3.41-8.21c-3.44,1.47-6.92,2.83-10.37,4.25l-5.19,2.11-5.22,2,3.26,8.27,5.25-2.06,5.23-2.12C1403.52,532.39,1407,531,1410.48,529.54Z"/><polygon class="cls-12" points="1441.33 516.1 1437.63 508.02 1427.43 512.61 1417.16 517.08 1420.66 525.25 1431.02 520.74 1441.33 516.1"/><path class="cls-12" d="M1471.67,501.56l-4-7.95q-10,5-20.13,9.8l3.79,8Q1461.57,506.63,1471.67,501.56Z"/><polygon class="cls-12" points="1501.49 485.97 1497.23 478.17 1487.39 483.47 1477.46 488.65 1481.53 496.54 1491.54 491.32 1501.49 485.97"/><path class="cls-12" d="M1530.67,469l-4.7-7.54c-3.17,1.94-6.31,3.92-9.53,5.79s-6.4,3.79-9.65,5.59l4.38,7.73c3.3-1.83,6.55-3.76,9.81-5.69S1527.45,471,1530.67,469Z"/><path class="cls-12" d="M1558.74,450.31l-5.08-7.29c-6.14,4.3-12.28,8.49-18.49,12.58L1540,463Q1549.51,456.79,1558.74,450.31Z"/><path class="cls-12" d="M1586.38,431.89l-4.65-7.57c-6.47,4-12.81,8.14-19,12.42l5,7.32C1573.89,439.83,1580.06,435.76,1586.38,431.89Z"/><path class="cls-12" d="M1615.33,415.82l-4-7.93c-6.73,3.44-13.43,7-20,10.75l4.42,7.71C1602.14,422.66,1608.71,419.2,1615.33,415.82Z"/><path class="cls-12" d="M1645.52,402.66l-3-8.34-10.62,4.2-2.65,1.06c-.44.18-.89.34-1.33.53l-1.29.6-5.18,2.41,3.72,8.07,5-2.34,1.26-.58c.42-.18.85-.34,1.28-.51l2.57-1Z"/><path class="cls-12" d="M1677.07,393.19l-2.07-8.64c-.93.22-1.86.39-2.78.65l-2.75.75-5.5,1.51-5.5,1.52c-1.82.55-3.61,1.18-5.42,1.77l2.73,8.46c1.75-.57,3.49-1.19,5.25-1.73l5.34-1.46,5.34-1.47,2.66-.73C1675.26,393.57,1676.17,393.4,1677.07,393.19Z"/><path class="cls-12" d="M1709.54,387.22l-1.18-8.8c-3.76.5-7.52,1-11.26,1.68s-7.48,1.26-11.2,2l1.76,8.71c3.61-.76,7.27-1.31,10.91-2S1705.87,387.71,1709.54,387.22Z"/><path class="cls-12" d="M1742.52,384.15l-.49-8.88-11.32.77c-1.88.11-3.77.31-5.65.49l-5.66.56.93,8.84,5.53-.55c1.85-.18,3.69-.38,5.54-.48Z"/><path class="cls-12" d="M1775.82,383.12l-.15-8.89q-11.25.16-22.56.55l.32,8.88C1760.88,383.41,1768.33,383.22,1775.82,383.12Z"/><path class="cls-12" d="M1809.44,382.32l-.43-8.88c-7.41.33-14.86.5-22.34.62l.15,8.88C1794.32,382.83,1801.86,382.66,1809.44,382.32Z"/></svg>