<?xml version="1.0" encoding="utf-8"?>
<!-- Generator: Adobe Illustrator 22.0.1, SVG Export Plug-In . SVG Version: 6.00 Build 0)  -->
<svg version="1.1" id="Layer_1" xmlns="http://www.w3.org/2000/svg" xmlns:xlink="http://www.w3.org/1999/xlink" x="0px" y="0px"
	 viewBox="0 0 73.2 53.9" style="enable-background:new 0 0 73.2 53.9;" xml:space="preserve">
<style type="text/css">
	.st0{fill:#000000;enable-background:new    ;}
</style>
<g>
	<path class="st0" d="M36.6,53.9c-0.2,0-0.4-0.1-0.5-0.2L0.5,31.1c-0.5-0.3-0.6-0.9-0.3-1.4s0.9-0.6,1.4-0.3l35.1,22.3l35.1-22.3
		c0.5-0.3,1.1-0.2,1.4,0.3s0.2,1.1-0.3,1.4L37.1,53.7C37,53.8,36.8,53.9,36.6,53.9z"/>
	<path class="st0" d="M36.6,24.6c-0.2,0-0.4-0.1-0.5-0.2L0.5,1.8C0,1.5-0.1,0.9,0.2,0.5C0.5,0,1.1-0.1,1.5,0.2l35.1,22.3l35-22.3
		C72.1-0.1,72.7,0,73,0.5s0.2,1.1-0.3,1.4L37.1,24.5C37,24.6,36.8,24.6,36.6,24.6z"/>
</g>
</svg>
